<?xml version="1.0" encoding="utf-8"?>
<!-- Generator: Adobe Illustrator 24.2.0, SVG Export Plug-In . SVG Version: 6.00 Build 0)  -->
<svg version="1.1" id="レイヤー_1" xmlns="http://www.w3.org/2000/svg" xmlns:xlink="http://www.w3.org/1999/xlink" x="0px"
	 y="0px" viewBox="0 0 439 110" style="enable-background:new 0 0 439 110;" xml:space="preserve">
<style type="text/css">
	.st0{fill:#020509;}
	.st1{fill:#FF0038;}
	.st2{fill:#00CFFA;}
	.st3{fill:#FFCE38;}
</style>
<g>
	<g>
		<path class="st0" d="M190.9,24.6c-1.1,0-2.2,0.6-2.9,1.4l-21.6,25.6L145,26c-0.7-0.9-1.8-1.4-3-1.4c-2.1,0-3.9,1.6-3.9,3.9
			c0,0.8,0.3,1.7,0.9,2.6l23.4,27.8v27.5c0,2.1,1.7,4,3.9,4c2.2,0,3.9-1.8,3.9-4V58.5l23.4-27.8c0.5-0.7,0.8-1.5,0.8-2.4
			C194.5,26.3,192.9,24.6,190.9,24.6z"/>
		<path class="st0" d="M234.6,42c-2.1,0-3.7,1.6-3.7,3.7v23.8c0,9.4-5.7,14.2-12.9,14.2c-7.1,0-12.8-4.9-12.8-14.2V45.7
			c0-2-1.6-3.7-3.7-3.7c-2.1,0-3.7,1.6-3.7,3.7v23.5c0,13.3,8.9,21.3,20.1,21.3c11.3,0,20.2-8,20.2-21.3V45.7
			C238.3,43.7,236.6,42,234.6,42z"/>
		<path class="st0" d="M273.2,56.8c6.8-2.5,9.8-8.5,9.8-14.2c0-9.5-7.5-17.3-18-17.3h-15.1c-2.1,0-3.9,1.7-3.9,3.9v56.5
			c0,2.2,1.7,4,3.9,4h15.7c10.6,0,18.4-7.9,18.4-17.6C284,65.5,280.3,59.3,273.2,56.8z M264.5,82.3h-10.6V32.6H264
			c6.7,0,11,4.6,11,10.5c0,5.8-4.6,10.4-10.4,10.4h-3c-2,0-3.6,1.6-3.6,3.7c0,2,1.6,3.6,3.6,3.6h3.6c6,0,10.7,4.9,10.7,10.8
			C275.9,77.6,271.4,82.3,264.5,82.3z"/>
		<path class="st0" d="M337.2,24.6c-1.1,0-2.2,0.5-3.2,1.6l-48.6,58.1c-0.7,0.8-0.9,1.6-0.9,2.4c0,2,1.6,3.7,3.7,3.7
			c1,0,2.2-0.6,2.9-1.4l42.3-50.6v28h-16.5c-2,0-3.6,1.6-3.6,3.7c0,2,1.6,3.6,3.6,3.6h16.5v12.8c0,2.1,1.7,4,4,4
			c2.1,0,3.9-1.8,3.9-4V28.6C341.1,26.4,339.4,24.6,337.2,24.6z"/>
		<path class="st0" d="M369.9,54.2l-4.1-1.2c-4-1.1-10.9-3.5-10.9-10.8c0-5.5,4.3-10.6,11.1-10.6c7,0,10.5,4.6,11.2,8.2
			c0.3,1.6,1.5,3.1,3.7,3.1c2.1,0,3.8-1.6,3.8-3.8c0-7.2-7.4-14.8-18.6-14.8c-10.9,0-18.9,7.3-18.9,17.4c0,12,9.2,15.9,15,17.6
			l4.6,1.3c4.9,1.4,11.1,4,11.1,11.6c0,5.6-4.8,10.9-11.8,10.9c-7.3,0-11.3-5-12-8.7c-0.4-1.6-1.6-2.9-3.7-2.9
			c-2.1,0-3.8,1.6-3.8,3.8c0,7.1,8.4,15.2,19.5,15.2c11.2,0,19.6-8.1,19.6-17.8C385.5,59.6,375.9,56,369.9,54.2z"/>
		<path class="st0" d="M421.7,32.6c2,0,3.6-1.6,3.6-3.7s-1.6-3.6-3.6-3.6h-26.1c-2.1,0-3.9,1.7-3.9,3.9v56.5c0,2.2,1.7,4,3.9,4h26.1
			c2,0,3.6-1.6,3.6-3.7c0-2-1.6-3.6-3.6-3.6h-22.1V61.1h22.1c2,0,3.6-1.6,3.6-3.6s-1.6-3.7-3.6-3.7h-22.1V32.6L421.7,32.6
			L421.7,32.6z"/>
	</g>
	<g>
		<path class="st1" d="M61,69.1c5.7-0.3,10.2-5.2,10.2-11v-7.5L71,14.5c0-1.2-1-2.2-2.2-2.2H51.8c-1.2,0-2.2,1-2.2,2.2l0.2,43.9
			C49.8,64.5,54.9,69.4,61,69.1z"/>
		<path class="st2" d="M71.2,91.9v-9.5c-3.6,1.6-7.6,2.5-11.9,2.3c-14.1-0.6-25-12.6-25-26.7l-0.2-43.4c0-1.2-1-2.2-2.2-2.2H17.8
			c-1.2,0-2.2,1-2.2,2.2L15.8,58c0,24.7,20,44.6,44.7,44.6l0,0C66.4,102.6,71.2,97.8,71.2,91.9z"/>
		<path class="st3" d="M88.7,12.3c-1.2,0-2.2,1-2.2,2.2l0.2,77.4c0,0.8,0,1.5-0.1,2.2c11.2-8.1,18.5-21.3,18.5-36.2L105,14.5
			c0-1.2-1-2.2-2.2-2.2L88.7,12.3L88.7,12.3z"/>
	</g>
</g>
</svg>
